<svg width="1284" height="111" viewBox="0 0 1284 111" fill="none" xmlns="http://www.w3.org/2000/svg">
<path fill-rule="evenodd" clip-rule="evenodd" d="M1284 111L1230.83 106.829C1176.67 102.659 1070.33 94.3179 963 80.2023C855.666 65.7659 749.334 45.2341 642 41.0636C534.666 36.8931 428.334 49.4046 321 53.2543C213.666 57.4249 107.334 53.2543 53.1656 51.3295L0 49.4046V0H53.1656C107.334 0 213.666 0 321 0C428.334 0 534.666 0 642 0C749.334 0 855.666 0 963 0C1070.33 0 1176.67 0 1230.83 0H1284V111Z" fill="#3A2244"/>
<path fill-rule="evenodd" clip-rule="evenodd" d="M1284 66.6L1241.2 57.72C1198.4 48.84 1112.8 31.08 1027.2 35.52C941.6 39.96 856 66.6 770.4 84.36C684.8 102.12 599.2 111 513.6 111C428 111 342.4 102.12 256.8 86.58C171.2 71.04 85.6 48.84 42.8 37.74L-0.00012207 26.64V0H42.8C85.6 0 171.2 0 256.8 0C342.4 0 428 0 513.6 0C599.2 0 684.8 0 770.4 0C856 0 941.6 0 1027.2 0C1112.8 0 1198.4 0 1241.2 0H1284V66.6Z" fill="#51315F" fill-opacity="0.8"/>
</svg>
